<svg id="Ebene_1" data-name="Ebene 1" xmlns="http://www.w3.org/2000/svg" viewBox="0 0 2205.56 1037.42"><defs><style>.cls-1,.cls-2{font-size:335px;font-family:Silom, Silom;}.cls-1{fill:red;}</style></defs><title>AirhBM</title><text class="cls-1" transform="translate(0 424.78)">AIRHOCKEY<tspan x="0" y="402">BEASTMODE</tspan></text><text class="cls-2" transform="translate(25 449.78)">AIRHOCKEY<tspan x="0" y="402">BEASTMODE</tspan></text><text class="cls-2" transform="translate(24.5 449.28)">AIRHOCKEY<tspan x="0" y="402">BEASTMODE</tspan></text><text class="cls-2" transform="translate(24 448.78)">AIRHOCKEY<tspan x="0" y="402">BEASTMODE</tspan></text><text class="cls-2" transform="translate(23.5 448.28)">AIRHOCKEY<tspan x="0" y="402">BEASTMODE</tspan></text><text class="cls-2" transform="translate(23 447.78)">AIRHOCKEY<tspan x="0" y="402">BEASTMODE</tspan></text><text class="cls-2" transform="translate(22.5 447.28)">AIRHOCKEY<tspan x="0" y="402">BEASTMODE</tspan></text><text class="cls-2" transform="translate(22 446.78)">AIRHOCKEY<tspan x="0" y="402">BEASTMODE</tspan></text><text class="cls-2" transform="translate(21.5 446.28)">AIRHOCKEY<tspan x="0" y="402">BEASTMODE</tspan></text><text class="cls-2" transform="translate(21 445.78)">AIRHOCKEY<tspan x="0" y="402">BEASTMODE</tspan></text><text class="cls-2" transform="translate(20.5 445.28)">AIRHOCKEY<tspan x="0" y="402">BEASTMODE</tspan></text><text class="cls-2" transform="translate(20 444.78)">AIRHOCKEY<tspan x="0" y="402">BEASTMODE</tspan></text><text class="cls-2" transform="translate(19.5 444.28)">AIRHOCKEY<tspan x="0" y="402">BEASTMODE</tspan></text><text class="cls-2" transform="translate(19 443.78)">AIRHOCKEY<tspan x="0" y="402">BEASTMODE</tspan></text><text class="cls-2" transform="translate(18.5 443.28)">AIRHOCKEY<tspan x="0" y="402">BEASTMODE</tspan></text><text class="cls-2" transform="translate(18 442.78)">AIRHOCKEY<tspan x="0" y="402">BEASTMODE</tspan></text><text class="cls-2" transform="translate(17.5 442.28)">AIRHOCKEY<tspan x="0" y="402">BEASTMODE</tspan></text><text class="cls-2" transform="translate(17 441.78)">AIRHOCKEY<tspan x="0" y="402">BEASTMODE</tspan></text><text class="cls-2" transform="translate(16.5 441.28)">AIRHOCKEY<tspan x="0" y="402">BEASTMODE</tspan></text><text class="cls-2" transform="translate(16 440.78)">AIRHOCKEY<tspan x="0" y="402">BEASTMODE</tspan></text><text class="cls-2" transform="translate(15.5 440.28)">AIRHOCKEY<tspan x="0" y="402">BEASTMODE</tspan></text><text class="cls-2" transform="translate(15 439.78)">AIRHOCKEY<tspan x="0" y="402">BEASTMODE</tspan></text><text class="cls-2" transform="translate(14.5 439.28)">AIRHOCKEY<tspan x="0" y="402">BEASTMODE</tspan></text><text class="cls-2" transform="translate(14 438.78)">AIRHOCKEY<tspan x="0" y="402">BEASTMODE</tspan></text><text class="cls-2" transform="translate(13.5 438.28)">AIRHOCKEY<tspan x="0" y="402">BEASTMODE</tspan></text><text class="cls-2" transform="translate(13 437.78)">AIRHOCKEY<tspan x="0" y="402">BEASTMODE</tspan></text><text class="cls-2" transform="translate(12.5 437.28)">AIRHOCKEY<tspan x="0" y="402">BEASTMODE</tspan></text><text class="cls-2" transform="translate(12 436.78)">AIRHOCKEY<tspan x="0" y="402">BEASTMODE</tspan></text><text class="cls-2" transform="translate(11.5 436.28)">AIRHOCKEY<tspan x="0" y="402">BEASTMODE</tspan></text><text class="cls-2" transform="translate(11 435.78)">AIRHOCKEY<tspan x="0" y="402">BEASTMODE</tspan></text><text class="cls-2" transform="translate(10.5 435.28)">AIRHOCKEY<tspan x="0" y="402">BEASTMODE</tspan></text><text class="cls-2" transform="translate(10 434.78)">AIRHOCKEY<tspan x="0" y="402">BEASTMODE</tspan></text><text class="cls-2" transform="translate(9.5 434.28)">AIRHOCKEY<tspan x="0" y="402">BEASTMODE</tspan></text><text class="cls-2" transform="translate(9 433.78)">AIRHOCKEY<tspan x="0" y="402">BEASTMODE</tspan></text><text class="cls-2" transform="translate(8.5 433.28)">AIRHOCKEY<tspan x="0" y="402">BEASTMODE</tspan></text><text class="cls-2" transform="translate(8 432.78)">AIRHOCKEY<tspan x="0" y="402">BEASTMODE</tspan></text><text class="cls-2" transform="translate(7.5 432.28)">AIRHOCKEY<tspan x="0" y="402">BEASTMODE</tspan></text><text class="cls-2" transform="translate(7 431.78)">AIRHOCKEY<tspan x="0" y="402">BEASTMODE</tspan></text><text class="cls-2" transform="translate(6.5 431.28)">AIRHOCKEY<tspan x="0" y="402">BEASTMODE</tspan></text><text class="cls-2" transform="translate(6 430.78)">AIRHOCKEY<tspan x="0" y="402">BEASTMODE</tspan></text><text class="cls-2" transform="translate(5.5 430.28)">AIRHOCKEY<tspan x="0" y="402">BEASTMODE</tspan></text><text class="cls-2" transform="translate(5 429.78)">AIRHOCKEY<tspan x="0" y="402">BEASTMODE</tspan></text><text class="cls-2" transform="translate(4.5 429.28)">AIRHOCKEY<tspan x="0" y="402">BEASTMODE</tspan></text><text class="cls-2" transform="translate(4 428.78)">AIRHOCKEY<tspan x="0" y="402">BEASTMODE</tspan></text><text class="cls-2" transform="translate(3.5 428.28)">AIRHOCKEY<tspan x="0" y="402">BEASTMODE</tspan></text><text class="cls-2" transform="translate(3 427.78)">AIRHOCKEY<tspan x="0" y="402">BEASTMODE</tspan></text><text class="cls-2" transform="translate(2.5 427.28)">AIRHOCKEY<tspan x="0" y="402">BEASTMODE</tspan></text><text class="cls-2" transform="translate(2 426.78)">AIRHOCKEY<tspan x="0" y="402">BEASTMODE</tspan></text><text class="cls-2" transform="translate(1.5 426.28)">AIRHOCKEY<tspan x="0" y="402">BEASTMODE</tspan></text><text class="cls-2" transform="translate(1 425.78)">AIRHOCKEY<tspan x="0" y="402">BEASTMODE</tspan></text><text class="cls-2" transform="translate(0.5 425.28)">AIRHOCKEY<tspan x="0" y="402">BEASTMODE</tspan></text><text class="cls-2" transform="translate(0 424.78)">AIRHOCKEY<tspan x="0" y="402">BEASTMODE</tspan></text><text class="cls-1" transform="translate(0 424.78)">AIRHOCKEY<tspan x="0" y="402">BEASTMODE</tspan></text></svg>